<svg width="958" height="136" viewBox="0 0 958 136" fill="none" xmlns="http://www.w3.org/2000/svg">
<g clip-path="url(#clip0_252_42)">
<path d="M434.086 0H431.18V126.493H434.086V0Z" fill="#333333"/>
<path d="M483.228 48.0621V1.32037H513.082V11.3553H493.531V21.1262H510.969V30.633H493.531V48.0621H483.228Z" fill="#333333"/>
<path d="M538.974 27.7282C538.709 24.5592 536.067 21.9185 532.897 22.1825C532.633 22.1825 532.633 22.1825 532.369 22.1825C529.198 21.9185 526.292 24.5592 525.764 27.7282H538.974ZM548.221 38.5554C546.107 45.1573 540.03 49.3825 533.161 48.8544C523.914 49.1185 516.252 41.7243 516.252 32.7456C516.252 32.4816 516.252 31.9534 516.252 31.6893C515.724 22.7107 522.857 15.0524 531.84 14.5243C532.104 14.5243 532.104 14.5243 532.369 14.5243C542.408 14.5243 548.749 20.8622 548.749 31.1612C548.749 32.2175 548.749 33.2738 548.485 34.3301H525.764C526.028 38.0272 529.198 40.9321 533.161 40.668C536.067 40.9321 538.709 39.0835 539.766 36.4427L548.221 38.5554Z" fill="#333333"/>
<path d="M575.435 25.0874C574.378 24.8233 573.321 24.8233 572.264 24.8233C568.301 24.8233 564.602 27.2 564.602 33.8019V48.0621H554.562V15.3165H564.338V19.8058C565.923 16.6369 569.358 14.7883 572.793 15.0524C573.585 15.0524 574.642 15.0524 575.435 15.3165V25.0874Z" fill="#333333"/>
<path d="M580.189 48.0621V15.3165H589.701V19.0136C591.814 16.1087 595.513 14.2602 599.212 14.2602C603.175 13.9961 606.874 15.8446 608.723 19.2777C610.837 15.8446 614.8 13.9961 618.763 14.2602C624.84 14.2602 630.916 17.9573 630.916 26.6718V47.798H621.141V29.0485C621.405 26.4078 619.556 23.767 616.914 23.5029C616.649 23.5029 616.385 23.5029 615.857 23.5029C612.951 23.5029 610.573 25.6155 610.309 28.5204C610.309 28.7844 610.309 28.7844 610.309 29.0485V47.798H600.533V29.0485C600.797 26.4078 598.948 23.767 596.042 23.5029C595.777 23.5029 595.513 23.5029 595.249 23.5029C592.343 23.5029 589.965 25.8796 589.965 28.7844V29.0485V47.798H580.189V48.0621Z" fill="#333333"/>
<path d="M646.768 11.3553H638.842L644.919 1.32037H656.016L646.768 11.3553ZM638.578 15.3165H648.618V48.0621H638.578V15.3165Z" fill="#333333"/>
<path d="M666.584 48.0622H656.544V15.3165H666.055V19.0136C668.169 16.1088 671.604 14.2602 675.038 14.5243C683.228 14.5243 686.927 20.334 686.927 27.4641V47.7981H676.888V29.0486C677.152 26.4078 675.302 23.767 672.396 23.5029C672.132 23.5029 671.868 23.5029 671.604 23.5029C668.697 23.5029 666.319 25.8796 666.319 28.7845C666.319 29.0486 666.319 29.0486 666.319 29.3126L666.584 48.0622Z" fill="#333333"/>
<path d="M738.447 1.32037H749.544L732.635 48.0621H721.803L704.894 1.32037H716.254L727.351 34.066L738.447 1.32037Z" fill="#333333"/>
<path d="M766.981 11.3553H759.055L765.132 1.32037H776.228L766.981 11.3553ZM768.567 35.1223V33.8019L762.49 34.8582C760.376 35.1223 758.791 36.1786 758.791 38.5553C758.791 40.4039 760.376 41.9883 762.226 41.9883C762.49 41.9883 762.49 41.9883 762.754 41.9883C765.66 41.7243 768.567 40.4039 768.567 35.1223ZM758.527 29.3126L766.189 27.9922C768.038 27.7281 768.567 26.9359 768.567 25.8796C768.567 24.0311 766.981 22.1825 763.811 22.1825C760.905 21.9184 758.527 24.0311 758.263 26.9359L749.544 25.0874C749.808 20.334 754.3 14.2602 763.811 14.2602C774.379 14.2602 778.342 20.0699 778.342 26.9359V42.7806C778.342 44.365 778.606 46.2136 778.606 47.798H769.623C769.359 46.4777 769.359 45.4213 769.359 44.101C767.51 47.2699 764.075 49.1184 760.376 48.8544C753.243 48.8544 749.016 44.101 749.016 38.8194C749.016 33.2738 753.243 29.8408 758.527 29.3126Z" fill="#333333"/>
<path d="M784.419 48.0622V39.0835L798.686 23.767H784.683V15.3165H811.368V23.5029L796.308 39.3476H811.632V48.0622H784.419Z" fill="#333333"/>
<path d="M833.032 39.6116C836.995 39.6116 840.43 36.4427 840.43 32.2175C840.43 31.9534 840.43 31.6893 840.43 31.4252C840.958 27.4641 837.788 23.767 833.825 23.2388C829.862 22.7107 826.163 25.8796 825.634 29.8408C825.634 30.3689 825.634 30.8971 825.634 31.4252C825.106 35.3864 828.276 39.0835 832.239 39.6116C832.504 39.6116 832.768 39.6116 833.032 39.6116ZM840.166 60.4738V45.4213C838.052 47.798 834.881 49.1184 831.711 48.8544C822.464 48.8544 815.595 41.7243 815.595 31.6893C815.595 21.6544 821.936 14.7883 831.447 14.7883C837.259 14.7883 839.901 17.4291 840.694 18.7495V15.3165H850.205V60.4738H840.166Z" fill="#333333"/>
<path d="M878.739 44.6292C876.625 47.2699 873.455 48.8544 870.02 48.5903C863.415 48.8544 857.867 43.8369 857.603 37.235C857.603 36.7068 857.603 36.4427 857.603 35.9146V15.3165H867.642V33.802C867.378 36.7068 869.227 39.0835 872.134 39.3476C872.398 39.3476 872.662 39.3476 872.926 39.3476C875.833 39.3476 878.21 37.235 878.475 34.3301C878.475 34.066 878.475 34.066 878.475 33.802V15.3165H888.514V41.9884C888.514 43.8369 888.514 45.9495 888.778 47.7981H879.267C879.003 46.7418 878.739 45.6855 878.739 44.6292Z" fill="#333333"/>
<path d="M917.048 27.7282C916.784 24.5592 914.142 21.9184 910.972 22.1825C910.708 22.1825 910.708 22.1825 910.443 22.1825C907.273 21.9184 904.367 24.5592 903.838 27.7282H917.048ZM926.031 38.5553C923.918 45.1573 917.841 49.3825 910.972 48.8544C901.725 49.1184 894.063 41.7243 894.063 32.7456C894.063 32.2175 894.063 31.9534 894.063 31.4252C893.534 22.4466 900.668 14.7883 909.651 14.2602C909.915 14.2602 909.915 14.2602 910.179 14.2602C920.219 14.2602 926.56 20.5981 926.56 30.8971C926.56 31.9534 926.56 33.0097 926.296 34.066H903.574C903.838 37.7631 907.273 40.668 910.972 40.4039C913.878 40.668 916.52 38.8194 917.577 36.1786L926.031 38.5553Z" fill="#333333"/>
<path d="M930.787 48.0622V39.0835L945.054 23.767H931.051V15.3165H957.736V23.5029L942.94 39.3476H958V48.0622H930.787Z" fill="#333333"/>
<path d="M496.437 104.575H507.798L502.249 88.4661L496.437 104.575ZM510.968 114.082H493.002L489.568 123.588H478.735L496.173 77.1107H508.326L525.763 123.588H514.403L510.968 114.082Z" fill="#333333"/>
<path d="M550.863 100.878C549.806 100.614 548.75 100.614 547.693 100.614C543.73 100.614 540.031 102.99 540.031 109.592V123.852H529.991V90.8427H539.502V95.3321C541.88 91.635 546.372 89.7864 550.599 90.8427L550.863 100.878Z" fill="#333333"/>
<path d="M571.471 115.402C575.434 115.402 578.869 112.233 578.869 108.272C578.869 108.008 578.869 107.744 578.869 107.48C579.397 103.518 576.227 99.8214 572.264 99.2932C568.301 98.7651 564.602 101.934 564.073 105.895C564.073 106.423 564.073 106.951 564.073 107.48C563.545 111.441 566.715 115.138 570.678 115.666C570.943 115.402 571.207 115.402 571.471 115.402ZM578.869 136V120.948C576.755 123.324 573.585 124.645 570.414 124.381C561.167 124.381 554.298 117.25 554.298 107.216C554.298 97.1806 560.639 90.3146 570.15 90.3146C575.962 90.3146 578.605 92.9554 579.397 94.2757V91.1068H588.908V136.264L578.869 136Z" fill="#333333"/>
<path d="M617.442 120.155C615.328 122.796 612.158 124.381 608.723 124.117C602.118 124.381 596.57 119.363 596.306 112.761C596.306 112.233 596.306 111.969 596.306 111.441V90.8428H606.345V109.328C606.081 111.969 607.931 114.61 610.837 114.874C611.101 114.874 611.365 114.874 611.629 114.874C614.536 114.874 616.914 112.761 617.178 109.856C617.178 109.592 617.178 109.592 617.178 109.328V90.8428H627.217V117.515C627.217 119.363 627.217 121.476 627.482 123.324H617.97C617.442 122.532 617.442 121.476 617.442 120.155Z" fill="#333333"/>
<path d="M634.88 90.8427H644.92V123.588H634.88V90.8427ZM639.636 74.998C642.806 74.998 645.448 77.6388 645.712 80.8078C645.712 83.9767 643.07 86.6175 639.9 86.8815C636.729 86.8815 634.087 84.2408 633.823 81.0718C634.087 77.6388 636.465 75.2621 639.636 74.998Z" fill="#333333"/>
<path d="M664.734 90.8428H671.075V99.5573H664.734V111.705C664.734 114.346 666.055 115.138 668.433 115.138C669.226 115.138 670.283 115.138 671.075 114.874V123.06C669.49 123.852 667.641 124.117 665.791 123.852C658.922 123.852 654.959 119.891 654.959 113.289V99.2933H649.146V90.5787H650.732C653.374 90.8428 655.752 88.7301 655.752 86.0894C655.752 85.8253 655.752 85.5612 655.752 85.2971V81.0719H664.734V90.8428Z" fill="#333333"/>
<path d="M698.024 103.254C697.76 100.085 695.118 97.4446 691.948 97.7087C691.683 97.7087 691.683 97.7087 691.419 97.7087C688.249 97.4446 685.343 100.085 684.814 103.254H698.024ZM707.007 114.082C704.894 120.683 698.817 124.909 691.948 124.381C682.436 124.381 674.774 116.458 674.774 106.951C674.774 97.9728 682.172 90.3145 691.155 89.7864C701.195 89.7864 707.536 96.1242 707.536 106.423C707.536 107.48 707.536 108.536 707.536 109.328H684.814C685.343 113.025 688.513 115.93 692.212 115.666C695.118 115.93 697.76 114.082 698.817 111.441L707.007 114.082Z" fill="#333333"/>
<path d="M721.274 107.216C721.01 111.441 724.18 114.874 728.143 115.138C728.408 115.138 728.672 115.138 728.672 115.138C731.842 115.402 734.484 113.289 735.541 110.384L744.26 113.025C742.41 119.891 735.805 124.645 728.672 124.381C719.16 124.645 711.499 117.251 711.234 107.744C711.234 107.48 711.234 107.216 711.234 106.951C710.97 97.7088 718.368 90.0505 727.879 89.7864C728.143 89.7864 728.408 89.7864 728.672 89.7864C736.069 89.2583 742.41 94.0117 744.26 101.142L735.277 103.783C734.484 100.878 731.842 98.7651 728.672 99.0292C724.709 99.0292 721.274 102.198 721.274 106.159C721.274 106.687 721.274 106.951 721.274 107.216Z" fill="#333333"/>
<path d="M763.018 90.8428H769.359V99.5573H763.018V111.705C763.018 114.346 764.339 115.138 766.717 115.138C767.509 115.138 768.566 115.138 769.359 114.874V123.06C767.773 123.852 765.924 124.117 764.075 123.852C757.205 123.852 753.242 119.891 753.242 113.289V99.2933H747.43V90.5787H749.015C751.657 90.8428 754.035 88.7301 754.035 86.0894C754.035 85.8253 754.035 85.5612 754.035 85.2971V81.0719H763.018V90.8428Z" fill="#333333"/>
<path d="M797.893 107.215C798.157 103.254 795.251 99.5572 791.288 99.2932C787.325 99.0291 783.626 101.934 783.362 105.895C783.362 106.423 783.362 106.687 783.362 107.215C782.834 111.177 785.74 114.874 789.703 115.402C793.666 115.93 797.365 113.025 797.893 109.064C797.893 108.272 797.893 107.744 797.893 107.215ZM807.933 107.215C807.933 116.722 800.271 124.645 790.76 124.645C781.248 124.645 773.322 116.986 773.322 107.48C773.322 97.9728 780.984 90.0504 790.495 90.0504C799.743 89.7864 807.669 97.1805 807.933 106.423C807.933 106.687 807.933 106.951 807.933 107.215Z" fill="#333333"/>
<path d="M819.558 112.761C819.558 115.402 821.936 117.251 824.314 117.251H824.578C827.22 117.251 828.277 115.93 828.277 114.346C828.277 112.761 827.484 112.233 825.106 111.705L821.672 110.913C814.802 109.328 811.896 105.367 811.896 100.878C811.896 94.8039 817.18 90.0505 824.578 90.0505C834.089 90.0505 837.259 95.8602 837.524 99.8214L829.333 101.406C829.069 99.0292 827.22 97.1806 824.842 97.4447C823.257 97.1806 821.672 98.501 821.407 100.085C821.407 101.406 822.464 102.198 824.049 102.462L828.277 103.254C835.146 104.575 838.316 108.8 838.316 113.553C838.316 119.099 834.089 124.645 825.37 124.645C815.066 124.645 811.896 118.043 811.632 114.346L819.558 112.761Z" fill="#333333"/>
<path d="M65.5223 82.3922C65.5223 93.2194 59.4457 104.047 45.9713 104.047C36.1958 104.047 26.4203 97.4447 26.4203 82.3922C26.4203 66.5476 36.9884 61.0019 45.9713 61.0019C60.2383 61.0019 65.5223 72.6214 65.5223 82.3922ZM51.7838 36.4427C43.0651 36.4427 31.9686 39.6116 26.6845 46.2136V2.90485H0V126.229H26.4203V116.986C30.9117 123.852 40.1589 128.078 50.727 128.078C62.0877 128.342 73.1842 123.588 80.8461 115.138C88.7722 105.895 92.9994 94.0116 92.471 82.1281C92.7352 54.9281 76.3547 36.4427 51.7838 36.4427Z" fill="#333333"/>
<path d="M184.414 26.9359C176.487 34.3301 143.99 65.4913 138.971 126.229H109.644C114.4 62.5864 151.124 27.9922 151.124 27.9922H94.3203V2.90485H184.678L184.414 26.9359Z" fill="#333333"/>
<path d="M192.604 52.2874C191.812 48.8544 191.547 45.4214 191.547 41.9884C191.547 20.0699 207.135 0.264099 235.141 0.264099C261.825 0.264099 278.206 18.7495 278.206 40.668C278.206 56.5126 270.28 69.7165 255.22 78.9592L233.292 92.6913C229.857 94.5398 227.215 97.4447 225.365 101.142H278.999V126.229H190.755C190.755 103.783 196.832 85.033 218.232 72.0932L237.255 60.2097C246.238 54.4 249.936 49.3825 249.936 41.1961C249.936 33.0097 244.652 26.6719 234.348 26.6719C223.516 26.6719 217.968 34.5942 217.968 44.8932C217.968 47.534 218.232 49.9107 219.025 52.5515L192.604 52.2874Z" fill="#333333"/>
<path d="M322.592 91.3709C325.763 98.2369 331.047 102.726 339.501 102.726C347.956 102.726 353.24 98.2369 356.41 91.3709C359.581 84.5049 360.902 74.4699 360.902 64.6991C360.902 54.9282 359.845 45.1573 356.41 38.0272C352.976 30.8971 348.22 26.6719 339.501 26.6719C330.783 26.6719 325.763 31.1612 322.592 38.0272C319.422 44.8932 318.365 54.9282 318.365 64.6991C318.365 74.4699 319.422 84.2408 322.592 91.3709ZM300.135 21.3903C307.797 8.97866 320.743 0.264099 339.501 0.264099C358.26 0.264099 371.47 8.97866 379.132 21.3903C387.058 34.3301 389.436 49.6466 389.436 64.9631C389.436 80.2796 387.322 95.5961 379.132 108.536C364.601 130.454 335.01 136 313.081 121.476C308.061 118.043 303.57 113.553 300.135 108.536C291.945 95.5961 289.831 80.2796 289.831 65.2272C289.831 50.1748 292.209 34.3301 300.135 21.3903Z" fill="#333333"/>
</g>
<defs>
<clipPath id="clip0_252_42">
<rect width="958" height="136" fill="white"/>
</clipPath>
</defs>
</svg>
