<svg width="1440" height="600" viewBox="0 0 1440 600" fill="none" xmlns="http://www.w3.org/2000/svg">
<rect width="1440" height="600" fill="white"/>
<g clip-path="url(#clip0_252_74)">
<path d="M675.086 224H672.18V350.493H675.086V224Z" fill="#333333"/>
<path d="M724.228 272.062V225.32H754.082V235.355H734.531V245.126H751.969V254.633H734.531V272.062H724.228Z" fill="#333333"/>
<path d="M779.974 251.728C779.709 248.559 777.067 245.918 773.897 246.183C773.633 246.183 773.633 246.183 773.369 246.183C770.198 245.918 767.292 248.559 766.764 251.728H779.974ZM789.221 262.555C787.107 269.157 781.03 273.383 774.161 272.854C764.914 273.118 757.252 265.724 757.252 256.746C757.252 256.482 757.252 255.953 757.252 255.689C756.724 246.711 763.857 239.052 772.84 238.524C773.104 238.524 773.104 238.524 773.369 238.524C783.408 238.524 789.749 244.862 789.749 255.161C789.749 256.217 789.749 257.274 789.485 258.33H766.764C767.028 262.027 770.198 264.932 774.161 264.668C777.067 264.932 779.709 263.084 780.766 260.443L789.221 262.555Z" fill="#333333"/>
<path d="M816.435 249.087C815.378 248.823 814.321 248.823 813.264 248.823C809.301 248.823 805.602 251.2 805.602 257.802V272.062H795.562V239.316H805.338V243.806C806.923 240.637 810.358 238.788 813.793 239.052C814.585 239.052 815.642 239.052 816.435 239.316V249.087Z" fill="#333333"/>
<path d="M821.189 272.062V239.316H830.701V243.014C832.814 240.109 836.513 238.26 840.212 238.26C844.175 237.996 847.874 239.845 849.723 243.278C851.837 239.845 855.8 237.996 859.763 238.26C865.84 238.26 871.916 241.957 871.916 250.672V271.798H862.141V253.049C862.405 250.408 860.556 247.767 857.914 247.503C857.649 247.503 857.385 247.503 856.857 247.503C853.951 247.503 851.573 249.616 851.309 252.52C851.309 252.784 851.309 252.784 851.309 253.049V271.798H841.533V253.049C841.797 250.408 839.948 247.767 837.042 247.503C836.777 247.503 836.513 247.503 836.249 247.503C833.343 247.503 830.965 249.88 830.965 252.784V253.049V271.798H821.189V272.062Z" fill="#333333"/>
<path d="M887.768 235.355H879.842L885.919 225.32H897.016L887.768 235.355ZM879.578 239.316H889.618V272.062H879.578V239.316Z" fill="#333333"/>
<path d="M907.584 272.062H897.544V239.317H907.055V243.014C909.169 240.109 912.604 238.26 916.038 238.524C924.228 238.524 927.927 244.334 927.927 251.464V271.798H917.888V253.049C918.152 250.408 916.302 247.767 913.396 247.503C913.132 247.503 912.868 247.503 912.604 247.503C909.697 247.503 907.319 249.88 907.319 252.784C907.319 253.049 907.319 253.049 907.319 253.313L907.584 272.062Z" fill="#333333"/>
<path d="M979.447 225.32H990.544L973.635 272.062H962.803L945.894 225.32H957.254L968.351 258.066L979.447 225.32Z" fill="#333333"/>
<path d="M1007.98 235.355H1000.06L1006.13 225.32H1017.23L1007.98 235.355ZM1009.57 259.122V257.802L1003.49 258.858C1001.38 259.122 999.791 260.179 999.791 262.555C999.791 264.404 1001.38 265.988 1003.23 265.988C1003.49 265.988 1003.49 265.988 1003.75 265.988C1006.66 265.724 1009.57 264.404 1009.57 259.122ZM999.527 253.313L1007.19 251.992C1009.04 251.728 1009.57 250.936 1009.57 249.88C1009.57 248.031 1007.98 246.183 1004.81 246.183C1001.9 245.918 999.527 248.031 999.263 250.936L990.544 249.087C990.808 244.334 995.3 238.26 1004.81 238.26C1015.38 238.26 1019.34 244.07 1019.34 250.936V266.781C1019.34 268.365 1019.61 270.214 1019.61 271.798H1010.62C1010.36 270.478 1010.36 269.421 1010.36 268.101C1008.51 271.27 1005.08 273.118 1001.38 272.854C994.243 272.854 990.016 268.101 990.016 262.819C990.016 257.274 994.243 253.841 999.527 253.313Z" fill="#333333"/>
<path d="M1025.42 272.062V263.084L1039.69 247.767H1025.68V239.317H1052.37V247.503L1037.31 263.348H1052.63V272.062H1025.42Z" fill="#333333"/>
<path d="M1074.03 263.612C1078 263.612 1081.43 260.443 1081.43 256.217C1081.43 255.953 1081.43 255.689 1081.43 255.425C1081.96 251.464 1078.79 247.767 1074.82 247.239C1070.86 246.711 1067.16 249.88 1066.63 253.841C1066.63 254.369 1066.63 254.897 1066.63 255.425C1066.11 259.386 1069.28 263.083 1073.24 263.612C1073.5 263.612 1073.77 263.612 1074.03 263.612ZM1081.17 284.474V269.421C1079.05 271.798 1075.88 273.118 1072.71 272.854C1063.46 272.854 1056.59 265.724 1056.59 255.689C1056.59 245.654 1062.94 238.788 1072.45 238.788C1078.26 238.788 1080.9 241.429 1081.69 242.749V239.316H1091.21V284.474H1081.17Z" fill="#333333"/>
<path d="M1119.74 268.629C1117.63 271.27 1114.45 272.854 1111.02 272.59C1104.41 272.854 1098.87 267.837 1098.6 261.235C1098.6 260.707 1098.6 260.443 1098.6 259.915V239.317H1108.64V257.802C1108.38 260.707 1110.23 263.084 1113.13 263.348C1113.4 263.348 1113.66 263.348 1113.93 263.348C1116.83 263.348 1119.21 261.235 1119.47 258.33C1119.47 258.066 1119.47 258.066 1119.47 257.802V239.317H1129.51V265.988C1129.51 267.837 1129.51 269.95 1129.78 271.798H1120.27C1120 270.742 1119.74 269.685 1119.74 268.629Z" fill="#333333"/>
<path d="M1158.05 251.728C1157.78 248.559 1155.14 245.918 1151.97 246.183C1151.71 246.183 1151.71 246.183 1151.44 246.183C1148.27 245.918 1145.37 248.559 1144.84 251.728H1158.05ZM1167.03 262.555C1164.92 269.157 1158.84 273.383 1151.97 272.854C1142.72 273.118 1135.06 265.724 1135.06 256.746C1135.06 256.217 1135.06 255.953 1135.06 255.425C1134.53 246.447 1141.67 238.788 1150.65 238.26C1150.91 238.26 1150.91 238.26 1151.18 238.26C1161.22 238.26 1167.56 244.598 1167.56 254.897C1167.56 255.953 1167.56 257.01 1167.3 258.066H1144.57C1144.84 261.763 1148.27 264.668 1151.97 264.404C1154.88 264.668 1157.52 262.819 1158.58 260.179L1167.03 262.555Z" fill="#333333"/>
<path d="M1171.79 272.062V263.084L1186.05 247.767H1172.05V239.317H1198.74V247.503L1183.94 263.348H1199V272.062H1171.79Z" fill="#333333"/>
<path d="M737.437 328.575H748.798L743.249 312.466L737.437 328.575ZM751.968 338.082H734.002L730.568 347.588H719.735L737.173 301.111H749.326L766.763 347.588H755.403L751.968 338.082Z" fill="#333333"/>
<path d="M791.863 324.878C790.806 324.614 789.75 324.614 788.693 324.614C784.73 324.614 781.031 326.99 781.031 333.592V347.852H770.991V314.843H780.502V319.332C782.88 315.635 787.372 313.786 791.599 314.843L791.863 324.878Z" fill="#333333"/>
<path d="M812.471 339.402C816.434 339.402 819.869 336.233 819.869 332.272C819.869 332.008 819.869 331.744 819.869 331.48C820.397 327.518 817.227 323.821 813.264 323.293C809.301 322.765 805.602 325.934 805.073 329.895C805.073 330.423 805.073 330.951 805.073 331.48C804.545 335.441 807.715 339.138 811.678 339.666C811.943 339.402 812.207 339.402 812.471 339.402ZM819.869 360V344.948C817.755 347.324 814.585 348.645 811.414 348.381C802.167 348.381 795.298 341.25 795.298 331.216C795.298 321.181 801.639 314.315 811.15 314.315C816.962 314.315 819.605 316.955 820.397 318.276V315.107H829.908V360.264L819.869 360Z" fill="#333333"/>
<path d="M858.442 344.155C856.328 346.796 853.158 348.381 849.723 348.117C843.118 348.381 837.57 343.363 837.306 336.761C837.306 336.233 837.306 335.969 837.306 335.441V314.843H847.345V333.328C847.081 335.969 848.931 338.61 851.837 338.874C852.101 338.874 852.365 338.874 852.629 338.874C855.536 338.874 857.914 336.761 858.178 333.856C858.178 333.592 858.178 333.592 858.178 333.328V314.843H868.217V341.515C868.217 343.363 868.217 345.476 868.482 347.324H858.97C858.442 346.532 858.442 345.476 858.442 344.155Z" fill="#333333"/>
<path d="M875.88 314.843H885.92V347.588H875.88V314.843ZM880.636 298.998C883.806 298.998 886.448 301.639 886.712 304.808C886.712 307.977 884.07 310.617 880.9 310.882C877.729 310.882 875.087 308.241 874.823 305.072C875.087 301.639 877.465 299.262 880.636 298.998Z" fill="#333333"/>
<path d="M905.734 314.843H912.075V323.557H905.734V335.705C905.734 338.346 907.055 339.138 909.433 339.138C910.226 339.138 911.283 339.138 912.075 338.874V347.06C910.49 347.852 908.641 348.117 906.791 347.852C899.922 347.852 895.959 343.891 895.959 337.289V323.293H890.146V314.579H891.732C894.374 314.843 896.752 312.73 896.752 310.089C896.752 309.825 896.752 309.561 896.752 309.297V305.072H905.734V314.843Z" fill="#333333"/>
<path d="M939.024 327.254C938.76 324.085 936.118 321.445 932.948 321.709C932.683 321.709 932.683 321.709 932.419 321.709C929.249 321.445 926.343 324.085 925.814 327.254H939.024ZM948.007 338.082C945.894 344.683 939.817 348.909 932.948 348.381C923.436 348.381 915.774 340.458 915.774 330.951C915.774 321.973 923.172 314.315 932.155 313.786C942.195 313.786 948.536 320.124 948.536 330.423C948.536 331.48 948.536 332.536 948.536 333.328H925.814C926.343 337.025 929.513 339.93 933.212 339.666C936.118 339.93 938.76 338.082 939.817 335.441L948.007 338.082Z" fill="#333333"/>
<path d="M962.274 331.216C962.01 335.441 965.18 338.874 969.143 339.138C969.408 339.138 969.672 339.138 969.672 339.138C972.842 339.402 975.484 337.289 976.541 334.384L985.26 337.025C983.41 343.891 976.805 348.645 969.672 348.381C960.16 348.645 952.499 341.251 952.234 331.744C952.234 331.48 952.234 331.216 952.234 330.951C951.97 321.709 959.368 314.051 968.879 313.786C969.143 313.786 969.408 313.786 969.672 313.786C977.069 313.258 983.41 318.012 985.26 325.142L976.277 327.783C975.484 324.878 972.842 322.765 969.672 323.029C965.709 323.029 962.274 326.198 962.274 330.159C962.274 330.687 962.274 330.951 962.274 331.216Z" fill="#333333"/>
<path d="M1004.02 314.843H1010.36V323.557H1004.02V335.705C1004.02 338.346 1005.34 339.138 1007.72 339.138C1008.51 339.138 1009.57 339.138 1010.36 338.874V347.06C1008.77 347.852 1006.92 348.117 1005.07 347.852C998.205 347.852 994.242 343.891 994.242 337.289V323.293H988.43V314.579H990.015C992.657 314.843 995.035 312.73 995.035 310.089C995.035 309.825 995.035 309.561 995.035 309.297V305.072H1004.02V314.843Z" fill="#333333"/>
<path d="M1038.89 331.215C1039.16 327.254 1036.25 323.557 1032.29 323.293C1028.32 323.029 1024.63 325.934 1024.36 329.895C1024.36 330.423 1024.36 330.687 1024.36 331.215C1023.83 335.177 1026.74 338.874 1030.7 339.402C1034.67 339.93 1038.36 337.025 1038.89 333.064C1038.89 332.272 1038.89 331.744 1038.89 331.215ZM1048.93 331.215C1048.93 340.722 1041.27 348.645 1031.76 348.645C1022.25 348.645 1014.32 340.986 1014.32 331.48C1014.32 321.973 1021.98 314.05 1031.5 314.05C1040.74 313.786 1048.67 321.181 1048.93 330.423C1048.93 330.687 1048.93 330.951 1048.93 331.215Z" fill="#333333"/>
<path d="M1060.56 336.761C1060.56 339.402 1062.94 341.251 1065.31 341.251H1065.58C1068.22 341.251 1069.28 339.93 1069.28 338.346C1069.28 336.761 1068.48 336.233 1066.11 335.705L1062.67 334.913C1055.8 333.328 1052.9 329.367 1052.9 324.878C1052.9 318.804 1058.18 314.051 1065.58 314.051C1075.09 314.051 1078.26 319.86 1078.52 323.821L1070.33 325.406C1070.07 323.029 1068.22 321.181 1065.84 321.445C1064.26 321.181 1062.67 322.501 1062.41 324.085C1062.41 325.406 1063.46 326.198 1065.05 326.462L1069.28 327.254C1076.15 328.575 1079.32 332.8 1079.32 337.553C1079.32 343.099 1075.09 348.645 1066.37 348.645C1056.07 348.645 1052.9 342.043 1052.63 338.346L1060.56 336.761Z" fill="#333333"/>
<path d="M306.522 306.392C306.522 317.219 300.446 328.047 286.971 328.047C277.196 328.047 267.42 321.445 267.42 306.392C267.42 290.548 277.988 285.002 286.971 285.002C301.238 285.002 306.522 296.621 306.522 306.392ZM292.784 260.443C284.065 260.443 272.969 263.612 267.685 270.214V226.905H241V350.229H267.42V340.986C271.912 347.852 281.159 352.078 291.727 352.078C303.088 352.342 314.184 347.588 321.846 339.138C329.772 329.895 333.999 318.012 333.471 306.128C333.735 278.928 317.355 260.443 292.784 260.443Z" fill="#333333"/>
<path d="M425.414 250.936C417.487 258.33 384.99 289.491 379.971 350.229H350.644C355.4 286.586 392.124 251.992 392.124 251.992H335.32V226.905H425.678L425.414 250.936Z" fill="#333333"/>
<path d="M433.604 276.287C432.812 272.854 432.547 269.421 432.547 265.988C432.547 244.07 448.135 224.264 476.141 224.264C502.825 224.264 519.206 242.75 519.206 264.668C519.206 280.513 511.28 293.717 496.22 302.959L474.292 316.691C470.857 318.54 468.215 321.445 466.365 325.142H519.999V350.229H431.755C431.755 327.783 437.832 309.033 459.232 296.093L478.255 284.21C487.238 278.4 490.936 273.383 490.936 265.196C490.936 257.01 485.652 250.672 475.348 250.672C464.516 250.672 458.968 258.594 458.968 268.893C458.968 271.534 459.232 273.911 460.025 276.551L433.604 276.287Z" fill="#333333"/>
<path d="M563.592 315.371C566.763 322.237 572.047 326.726 580.501 326.726C588.956 326.726 594.24 322.237 597.41 315.371C600.581 308.505 601.902 298.47 601.902 288.699C601.902 278.928 600.845 269.157 597.41 262.027C593.976 254.897 589.22 250.672 580.501 250.672C571.783 250.672 566.763 255.161 563.592 262.027C560.422 268.893 559.365 278.928 559.365 288.699C559.365 298.47 560.422 308.241 563.592 315.371ZM541.135 245.39C548.797 232.979 561.743 224.264 580.501 224.264C599.26 224.264 612.47 232.979 620.132 245.39C628.058 258.33 630.436 273.647 630.436 288.963C630.436 304.28 628.322 319.596 620.132 332.536C605.601 354.454 576.01 360 554.081 345.476C549.061 342.043 544.57 337.553 541.135 332.536C532.945 319.596 530.831 304.28 530.831 289.227C530.831 274.175 533.209 258.33 541.135 245.39Z" fill="#333333"/>
</g>
<defs>
<clipPath id="clip0_252_74">
<rect width="958" height="136" fill="white" transform="translate(241 224)"/>
</clipPath>
</defs>
</svg>
